<?xml version="1.0" encoding="UTF-8"?>
<svg viewBox="0 0 194.881882 194.881882" xmlns="http://www.w3.org/2000/svg">
 <g transform="translate(17.127 13.679)" font-size="12" stroke="#000">
  <g transform="translate(-645.2 -362.39)">
   <path d="m665.24 525.24h120c11.039 0 20-8.961 20-20v-120c0-11.04-8.961-20-20-20h-120c-11.04 0-20 8.96-20 20v120c0 11.039 8.96 20 20 20z"/>
   <path d="m667.65 375.24h115.18c6.85 0 12.41 5.56 12.41 12.41v115.18c0 6.85-5.56 12.41-12.41 12.41h-115.18c-6.85 0-12.41-5.56-12.41-12.41v-115.18c0-6.85 5.56-12.41 12.41-12.41z" fill="#fff"/>
  </g>
  <path d="m54.554 64.917c1.344-5.231 7.504-15.284 2.454-15.4s-16.969 0-16.969 0-20 0-20-13.334 13.333-13.333 26.667-13.333 33.333 0 33.333 13.333-13.333 13.334-13.333 13.334-8.711 10.257-12.152 15.4z" fill="none" stroke-width="2"/>
  <path d="m103.88 73.121c-0.831-7.099 1.676-7.585 1.676-7.585h7.33s21.989 0 21.989-14.659-21.989-14.659-29.319-14.659-21.989 0-21.989 14.659 14.659 14.659 14.659 14.659 1.667 1.018 5.654 7.585z" fill="none" stroke-width="2"/>
  <g transform="translate(-645.2 -362.39)">
   <path d="m698.9 454.82c-3.953 4.79-10.717 6.661-16.745 4.151-7.382-3.073-10.879-11.56-7.806-18.943s11.561-10.879 18.943-7.806 10.88 11.561 7.806 18.943l-13.374-5.568 11.176 9.223z"/>
   <path d="m686.28 460.09-4.829 55.052" fill="none" stroke-width="3"/>
   <path d="m654.89 490.03 17.385-20.765 27.043 1.449 12.556 28.009 14.004-17.868 7.244 0.483" fill="none" stroke-width="3"/>
  </g>
  <g transform="translate(-645.2 -362.39)">
   <path d="m750.95 458.47c-3.113-5.226-2.696-12.074 1.508-16.916 5.243-6.039 14.4-6.684 20.438-1.442s6.684 14.4 1.441 20.438-14.399 6.684-20.437 1.441l9.498-10.939-12.448 7.418z"/>
   <path d="m764.02 465.4 13.039 49.74" fill="none" stroke-width="3"/>
   <path d="m767.89 481.82-32.838 22.214 27.526 4.829" fill="none" stroke-width="3"/>
  </g>
 </g>
</svg>
