<?xml version="1.0" encoding="UTF-8"?>
<svg width="473.95" height="405.85" viewBox="0 0 612 792" xmlns="http://www.w3.org/2000/svg">
 <defs>
  <clipPath id="d">
   <path d="m630.26-24.242h-641.68v826.8h641.68v-826.8"/>
  </clipPath>
  <clipPath id="c">
   <path d="m-14.393 802.8h644.38v-813.6h-644.38v813.6z"/>
  </clipPath>
  <clipPath id="b">
   <path d="m0 792h612v-792h-612v792z"/>
  </clipPath>
  <clipPath id="a">
   <path d="m0 792.06h612v-792h-612v792z"/>
  </clipPath>
 </defs>
 <g transform="matrix(1 0 0 -1 1.3117 796.3)">
  <g clip-path="url(#d)">
   <g clip-path="url(#c)">
    <g clip-path="url(#b)">
     <g clip-path="url(#a)">
      <g fill="none"></g>
     </g>
    </g>
   </g>
  </g>
 </g>
 <path d="m307.63 254.22c16.792 29.251-65.996 84.075-65.996 84.075l-5.4169-28.935 37.964-44.961-27.581-21.51 40.424 309.8-45.209 16.273-28.89-106.56-13.091 174.94-60.692 3.5662-1.9636-229.09-12.143-2.1442s2.7085-27.107 0.90283-57.848l-11.737-9.0282-7.2452-2.7085-22.593-23.519-2.7085-75.002s32.547-46.112 44.283-56.043l43.381-12.662v-8.1254s-25.302-7.2451-26.204-26.227c0 0-13.565 0-13.565-7.2226 0 0-56.923 1.8056 2.7085-37.061l-8.1254-25.302s-12.64-22.593 35.255-33.45c0 0 48.82-26.204 60.557 31.644l36.158 12.64s7.2226 9.0508-18.982 19.885c0 0 3.6113 18.079-6.3198 18.079 0 0 8.1254 36.158-26.227 50.626l37.964 13.565s37.061 16.251 65.093 69.585m-201.4 35.345 25.369 25.369v-62.566c-3.3856 5.0784-25.369 37.196-25.369 37.196" fill="#434c9e"/>
 <path d="m132.92 78.595s29.703-24.67 79.539-21.645c0 0-3.521-25.166-24.173-22.142 0 0-30.199 3.0019-55.366 18.124 0 0-10.563 4.5141 0 25.663" fill="#ec950d"/>
 <path d="m688.63 608.94-25.414-240.72c24.218-16.161 65.251-47.579 54.621-69.224l0.15799 4.6947 0.02258-7.4031c-15.98-60.263-45.006-79.245-56.246-87.032l0.24828 0.02257-0.74483-0.36113c-3.4307-2.3473-5.4621-3.4082-5.4621-3.4082l-15.935-6.8614-18.576-8.938-0.51913-8.1028s24.782-8.8477 24.466-27.852c0 0 4.3787 0.11285 13.068-8.0803 0 0 73.715 1.1962-5.1009-36.813l6.5003-25.776s9.5474-24.512-38.957-32.253c-50.964-8.148-52.319 7.2903-52.319 7.2903l-4.4464 29.319-35.278 14.942s-25.843 4.7398 20.223 18.621c0 0-2.4376 18.282 7.4709 17.628 0 0-5.8006 36.609 29.409 48.843l-46.608 14.152c-12.346 9.1862-64.62 75.07-64.62 75.07v42.749l35.774 35.21 7.042 3.1824 11.127 9.773c-0.15799 30.786-4.6044 57.668-4.6044 57.668l11.985 2.9116-12.752 198.19 60.783 0.33856 24.308-143.21 26.972 144.59s39.769 3.4984 53.402-19.162zm-151.9-280.48-23.677-26.949s23.993-30.673 27.694-35.503l-4.0176 62.453zm124.5 6.0715-3.3404-64.055 25.911 36.542-22.571 27.514" fill="#434c9e"/>
 <path d="m574.6 620.54s1.6251 12.03-6.1843 22.277c0 0-23.677 34.24-44.532 24.557 0 0-19.885-6.0489 12.865-51.641l34.375 3.4082" fill="#434c9e"/>
 <path d="m657.39 342.63-5.9812-85.633 39.137 47.692-30.673 38.438 5.5749 16.228c58.751-38.438 47.014-59.835 47.014-59.835-25.843-90.892-87.664-102.88-87.664-102.88-20.81 17.402-41.71-0.31599-41.71-0.31599l-39.092 9.6828c-12.391 2.9567-69.404 83.827-69.404 83.827l-6.5906 13.159c5.2815 20.043 53.357 50.693 53.357 50.693 1.6025-10.202 13.407-18.824 13.407-18.824l-31.035-42.342 41.507-32.976-3.9273 75.724 19.84 12.527c26.814 20.494-4.4013 10.044-4.4013 10.044 21.284 19.185-2.4828 9.2088-2.4828 9.2088 16.567 19.84-3.2727 7.3129-3.2727 7.3129 9.4571 27.807-17.515-4.8752-17.515-4.8752l-0.31599 48.752c51.009 35.052 129.74 5.8458 129.74 5.8458l-3.4759-52.386s-38.979 32.186-21.307 5.4395c0 0-27.198 15.416-1.3542-9.0734 0 0-39.905 21.758-5.4395-6.7937 0 0-39.453 18.576 8.5994-16.319l17.47-2.3248" fill="#fff"/>
 <path d="m545.05 340.5s43.223 25.55 8.7122 13.429l-2.6633 0.15799s27.107 24.828-4.3561 6.3198c0 0 24.85 28.958-3.9498 5.0107 0 0 21.893 34.059-6.4552 2.889l-7.6966-8.4188s-10.112-11.24 9.8408-22.119l6.568 2.731" fill="#c38a59"/>
 <path d="m587.33 191.24c15.055 19.501 31.644 3.521 31.644 3.521l-2.1894-10.698s-17.063 9.8408-26.904 4.5818l-2.5505 2.5956" fill="#c38a59"/>
 <path d="m466.69 124.41c21.284 55.614 3.2953 73.919 3.2953 73.919s58.729 23.112 84.707 65.477c0 0-6.726 32.727-50.062 74.122 0 0-9.6151 7.6966-14.445 16.364l10.608 45.254-8.6671 5.7781s-3.8596 77.011 9.6151 108.77c0 0-9.6151 11.556-39.453 11.556 0 0-4.8301 19.253-6.7486 37.535 0 0 1.6251 10.021 1.9185 39.476 0 0 32.727 25.031 23.112 43.313 0 0-15.348 17.74-53.876-22.909 0 0-29.184 39.408-59.835 24.828 0 0-13.136-8.7574 30.651-39.408l-1.4671-35.03-8.7574-48.143-30.651-1.4671-10.202-93.397-21.893-26.272s-11.669-7.2903 1.4445-16.048l-7.7868-11.421 13.159-13.745 12.324 10.969s5.0107-8.0803 12.707-1.3542l-0.97053-14.423s-6.2069-6.7034-19.253-24.083l-3.837 4.8301-49.114-44.283s-10.586-9.6376 1.9411-22.142c0 0 45.231-72.203 82.789-80.87-30.403-13.7-5.3492-75.86-5.3492-75.86l-4.8527-5.7555s-12.91-58.932 46.766-60.873c0 0 48.662-10.518 51.98 54.418l2.9793 10.766m-109.83 139.87 5.8232 65.567-12.549-0.09028 2.889-4.8301-29.838-29.838 33.675-30.809zm130.93-4.8075 40.424 22.142-29.838 46.202v7.6966l-6.884-1.3317-3.7016-74.709" fill="#434c9e"/>
 <path d="m385.25 193.52s-30.786 4.8075-43.313 19.253l-50.062 58.729s-16.364 11.556 1.9411 25.031l36.564 34.646 9.6376-14.423-31.779-31.779 45.254-37.535 8.6671 77.011s50.016 26.046 10.586 17.312c0 0 19.23 15.461 0.97053 10.608 0 0 12.504 18.305-4.8301 7.6966 0 0 10.112 18.305-8.6445 5.7781v10.586s11.534 5.7781 10.586 23.112c0 0 66.425 30.786 123.21-1.9411l-8.6671-38.505s-31.396 28.394-13.61 0.51912c0 0-25.956 10.089-3.7242-7.2452 0 0-28.958 8.6897-1.9185-7.7191 0 0-32.321 3.9047 4.8301-9.6151l9.615-4.8075-6.7486-91.456 52.951 31.757-32.885 48.73s8.1706 5.2589 9.1185 15.845c0 0 30.515-25.098 45.909-70.352 0 0-4.8075-25.008-80.87-61.595 0 0-11.534-5.7781-29.838-10.608 0 0-20.201 30.809-52.951 0.97054" fill="#fff"/>
 <path d="m367.94 405.33s63.536 29.838 116.49 4.8075c0 0 0.94796 92.404 9.6151 103.96 0 0-27.92 15.393-63.536 3.8596l-5.7781-64.507-4.8075 66.425s-47.172 0.97053-57.758 0l-8.6671-88.567s10.586-9.6151 14.445-25.979" fill="#34b5ed"/>
 <path d="m375.46 143.98s4.7172 30.199 44.803 36.79c0 0 32.547-4.7172 35.391-47.624 0 0-1.422-18.869-7.5611-23.586 0 0-24.241-17.74-50.648-6.41 0 0-1.9636 1.2865-19.072 2.9342-0.45141 0.04514-0.29342 5.3266-0.5417 4.8978-6.6132-10.856-3.2953 12.73-3.2953 12.73l-3.7918 1.4219s-3.2953 11.782-2.3473 16.499c0 0 3.2953 5.1912 7.0646 2.3473" fill="#fbcaa5"/>
 <path d="m396.18 176.94s18.892 10.292 27.468 6.2972l3.7016 12.482s-17.379 14.016-33.991-3.1599l2.8213-15.619" fill="#fbcaa5"/>
 <path d="m338.65 331.27 3.837-7.2 12.504-1.4445 0.94796 4.8075s49.994 19.388 10.563 10.992c0 0 22.119 19.749 1.4671 9.1862 0 0 17.786 20.675-5.7781 5.2815 0 0 16.815 25.956-2.3925 6.252l-21.149-27.875" fill="#fbcaa5"/>
 <path d="m493.41 327.91s5.2815 5.2815 5.7555 10.089c0 0-41.801 51.416-23.541 18.756 0 0-22.593 10.563-1.9411-6.252 0 0-25.46 3.363-0.94796-7.6966 0 0-32.208 4.8075 12.008-11.06l-0.94797-4.311 9.6151 0.47398" fill="#fbcaa5"/>
 <path d="m343.68 378.35s6.6357-11.624 18.824 7.2c0 0 7.1774 26.024-12.188 40.401l-23.812-24.895s-4.4238-4.4238 2.7762-11.082l14.4-11.624" fill="#41b23b"/>
 <path d="m322.64 377.25 4.9655 7.7417 12.752-8.8477-9.4345-7.7417-8.2834 8.8477" fill="#41b23b"/>
 <path d="m339.77 405.98-2.4602-2.4828 4.7624-4.7398 14.513 14.603-2.8439 2.8213-12.053-12.12-1.9185 1.9185" fill="#434c9e"/>
 <path d="m351.51 394.94 1.7154 2.7536 0.69969-0.78997c2.8439-2.8213 7.042-2.3248 9.7505 0.40628 3.1147 3.1373 3.0245 7.4257-0.09028 10.518-1.7154 1.7154-3.837 2.5279-6.2746 2.3699l-1.5574-3.2727c1.8282 0.31599 3.837-0.04514 5.1687-1.3768 1.6025-1.5799 1.2414-3.9724-0.24828-5.4846-1.5799-1.6025-4.1304-1.6702-5.7329-0.09028-0.83511 0.83511-1.3542 2.1216-1.3994 3.2953l-0.45141 0.42884-6.0489-9.2314 6.3423-6.2972 2.4602 2.4602-4.3336 4.311" fill="#434c9e"/>
 <path d="m401.89 580.84 19.84-0.90282-2.257 25.685s-1.7831 12.166-14.423 3.6113l-3.5887-2.257 0.42884-26.137" fill="#fff"/>
 <path d="m435.25 577.22s15.325 3.6113 19.84-1.8056c0 0 0.90282 11.263-1.8056 27.491 0 0-9.0057 9.931-20.268 0.45141l2.2345-26.137" fill="#fff"/>
 <path d="m399.65 611.49s13.52 10.36 21.623 0c0 0 2.7085 7.2 1.3542 11.263 0 0-29.748 34.714-51.845 20.291 0 0-0.90282-11.737 28.868-31.554" fill="#fff"/>
 <path d="m430.31 607.87s14.874 10.811 25.685-2.2571c0 0 29.748 28.394 22.097 38.776 0 0-19.84 8.5542-48.685-25.256l0.90283-11.263" fill="#fff"/>
 <path d="m370.34 638.07s22.548 9.9085 51.393-20.742c0 0-19.388 33.359-52.273 23.902l0.88025-3.1599" fill="#434c9e"/>
 <path d="m190.31 634.96s2.3925 11.917-4.7624 22.616c0 0-21.419 35.707-42.839 27.378 0 0-20.246-4.7624 9.5248-52.364l34.51 1.1962" fill="#434c9e"/>
 <path d="m169.37 177.41s22.006 16.341 41.665-2.3699c0 0 63.649 14.061 91.253 80.058 0 0 13.114 20.607-43.042 62.724l-4.6947-20.584 26.204-35.571-39.295-28.078 20.742 162.87s-78.794 31.824-128.4 5.5975l-2.7988-48.662s29.026 30.877 17.786 3.7467c0 0 20.584 11.218 2.7988-7.4934 0 0 24.354 8.4188 1.8734-9.3668 0 0 31.824 8.4414 3.7467-10.292l-20.584-11.24-0.94796-75.815-39.318 35.571 33.698 40.243s-11.218 9.3668-12.166 19.659c0 0-22.458-7.4708-29.003-27.13l-2.8213-67.396s32.772-50.558 44.938-54.305l38.37-12.166" fill="#fff"/>
 <path d="m32.928 641.5s-29.184 39.408-59.835 24.805c0 0-13.136-8.7574 30.651-39.386l-1.4445-35.03-8.7574-48.166-30.651-1.4445-10.224-93.397-21.893-26.272s-11.669-7.2903 1.4671-16.048l-7.7868-11.443 13.159-13.723 12.301 10.969s5.0107-8.1028 12.73-1.3542l-0.97054-14.445s-6.2069-6.6809-19.253-24.06l-3.8596 4.8075-49.091-44.283s-10.586-9.615 1.9185-22.142c0 0 45.254-72.181 82.789-80.848 0 0-30.786-0.97054-32.727-10.608l26.949-72.181s-17.312-57.758 42.365-59.699c0 0 51.032-6.726 52.951 48.143 0 0 25.031 9.6151 10.586 16.364 0 0 17.334 43.313 15.416 75.092l-13.497 9.6151s58.729 23.112 84.73 65.477c0 0-6.7486 32.727-50.062 74.122 0 0-9.6376 7.6966-14.445 16.364l10.586 45.231-8.6671 5.7781s-3.837 77.011 9.6376 108.79c0 0-9.6376 11.556-39.476 11.556 0 0-4.8075 19.253-6.726 37.535 0 0 8.6445-5.7781 1.9185 39.476 0 0 32.727 25.031 23.112 43.313 0 0-15.348 17.718-53.898-22.909zm-110.73-338.08 29.838 29.838-2.8665 4.8075 12.549 0.11285-5.8232-65.567-33.698 30.809zm168.33 39.07 6.884 1.3542v-7.6966l29.838-46.202-40.424-22.142 3.7016 74.686" fill="#434c9e"/>
 <path d="m-25.823 423.74s63.536 29.861 116.49 4.8075c0 0 0.97054 92.426 9.6376 103.98 0 0-27.92 15.393-63.536 3.837l-5.7781-64.484-4.8075 66.425s-47.172 0.94797-57.781 0l-8.6445-88.567s10.586-9.6376 14.423-26.001" fill="#34b5ed"/>
 <path d="m-18.285 162.42s4.7172 30.199 44.803 36.79c0 0 32.547-4.7172 35.368-47.624 0 0-1.3994-18.869-7.5386-23.586 0 0-25.934-10.382-52.341 0.94797 0 0-10.473 10.45-17.131 1.6476-0.27085-0.36113-0.54169-0.7674-0.78997-1.1737-6.6132-10.856-3.3179 12.73-3.3179 12.73l-3.7693 1.422s-3.2953 11.782-2.3699 16.499c0 0 3.3179 5.1912 7.0872 2.3473" fill="#e4a369"/>
 <path d="m-17.721 119.27s2.6859 16.634 24.241 3.1599c0 0 23.361-8.9831 46.27 0.88026 0 0 18.846 8.5542 21.103 4.0627 0 0 0.45141-6.7486-19.772-12.594 0 0-29.184-14.806-71.842 4.4916" fill="#3fbda5"/>
 <path d="m58.162 111.64s2.7085-39.07-43.11-41.756c0 0-56.584-2.257-43.561 55.682l5.8458-5.3944s31.892-25.144 80.825-8.5317" fill="#3fbda5"/>
 <path d="m20.266 139.13c0.67711 1.106 1.0608 2.3022 1.0608 3.5662 0 5.0558-6.0263 9.1636-13.452 9.1636-7.4483 0-13.475-4.1078-13.475-9.1636s6.0263-9.1636 13.475-9.1636c5.5524 0 10.337 2.3022 12.391 5.5975" fill="#434c9e"/>
 <path d="m-6.5481 142.7c0 5.5749 6.4552 10.134 14.423 10.134 7.9448 0 14.4-4.5592 14.4-10.134 0-1.422-0.40627-2.7988-1.1962-4.0627-2.2796-3.679-7.4709-6.0489-13.204-6.0489-7.9674 0-14.423 4.5367-14.423 10.112zm1.9185 0c0-4.5141 5.5975-8.1931 12.504-8.1931 5.0784 0 9.6376 2.0088 11.579 5.1461 0.58683 0.97054 0.90282 1.9862 0.90282 3.047 0 4.5141-5.5975 8.1931-12.482 8.1931-6.9066 0-12.504-3.679-12.504-8.1931" fill="#fff"/>
 <path d="m55.092 140.98c0 5.0558-6.0263 9.1636-13.452 9.1636s-13.452-4.1078-13.452-9.1636 6.0263-9.1636 13.452-9.1636 13.452 4.1078 13.452 9.1636" fill="#434c9e"/>
 <path d="m27.217 140.98c0 5.5749 6.4778 10.134 14.423 10.134s14.423-4.5593 14.423-10.134-6.4778-10.112-14.423-10.112-14.423 4.5367-14.423 10.112zm1.9411 0c0-4.5141 5.5975-8.1931 12.482-8.1931s12.482 3.679 12.482 8.1931-5.5975 8.1931-12.482 8.1931-12.482-3.679-12.482-8.1931" fill="#fff"/>
 <path d="m19.589 138.59 1.3542 1.3542c1.2188-1.2188 2.5053-1.7831 3.837-1.6702 1.8959 0.13542 3.3179 1.5122 3.4984 1.7605l1.2188-1.1962c0.06771 0.3837 0.29341 1.3768 0.29341 1.3768 0.31599-0.31599 0.5417-0.88026-0.29341-1.7154-0.36113-0.36113-1.7379-1.6025-3.7242-2.0314-1.5348-0.33856-3.8596-0.2257-6.1843 2.1216" fill="#fff"/>
 <path d="m-21.106 136.56 9.5248 8.3285 6.1843-1.2414-0.3837-1.8959-5.2589 1.0608c-0.65455-0.58683-8.8025-7.6966-8.8025-7.6966l-1.264 1.4445" fill="#fff"/>
 <path d="m57.033 131.55s1.9862 5.9586 2.5279 7.5611c-1.4219 0.27085-4.6495 0.92539-4.6495 0.92539l0.36113 1.8959 6.7937-1.3542-3.205-9.6376-1.8282 0.6094" fill="#fff"/>
 <path d="m26.473 143.85s2.2796 7.4483 7.4483 12.008l0.56426 5.1687-12.03 3.995-2.8665-2.8665 11.466-3.4307s-6.884-10.292-4.5818-14.874" fill="#434c9e"/>
 <path d="m4.1504 167.32s21.826 17.966 42.365 0c0 0-19.907 30.154-42.365 0" fill="#434c9e"/>
 <path d="m2.435 195.38s18.892 10.292 27.468 6.2972l2.8665 8.5768s-10.473 18.937-32.637-3.4307l2.3022-11.443" fill="#e4a369"/>
 <path d="m-24.492 128.95-8.5768 63.559s-20.043 0-18.892 6.8614l20.607-63.536 6.8614-6.884" fill="#fff"/>
 <path d="m63.669 133.53s5.1687 2.3022 8.5994 0c0 0 14.897 42.952 12.594 72.7 0 0-3.995-10.856-22.909-9.7279 0 0 11.466-17.74 6.884-32.05 0 0-9.1636-24.038-5.1687-29.206" fill="#fff"/>
 <path d="m-22.122 176.21c-0.04514-0.04514 2.1216 3.9273 0.97053 7.0194-0.51912 1.3994-1.6702 2.4602-3.4307 3.1147l-0.09029 0.02257-0.09028 0.06771c-0.11285 0.06771-2.573 1.7379-2.731 4.627-0.13542 2.1893 1.0834 4.4013 3.5887 6.568 0.02257 0.02257 2.3248 2.0539 2.1668 4.6721-0.11286 1.8734-1.4671 3.679-3.995 5.3718l1.0608 1.6025c3.0696-2.0539 4.6947-4.3561 4.8527-6.8614 0.22571-3.5887-2.7085-6.1392-2.8213-6.252-2.0314-1.7379-3.0244-3.4082-2.9342-4.9655 0.11285-1.9185 1.8508-3.1373 1.8734-3.1599l-0.20314 0.11286c2.3248-0.88026 3.8596-2.3022 4.5593-4.2433 1.4671-3.9498-1.0382-8.5317-1.1511-8.7122-1.8959-2.6859-1.9411-5.2364-0.158-7.6966l-1.5574-1.1285c-1.5799 2.2119-2.8665 5.7104 0.09029 9.8408" fill="#d3d2d2"/>
 <path d="m-13.026 180.46c0.27085 2.9116-0.94796 4.8527-3.7241 5.8909l-0.11285 0.02257-0.09029 0.06771c-0.09028 0.06771-2.5505 1.7379-2.731 4.627-0.13543 2.1893 1.0834 4.4013 3.6113 6.568 0.02257 0.02257 2.3248 2.0539 2.1668 4.6721-0.13542 1.8734-1.4671 3.679-4.0176 5.3718l1.0834 1.6025c3.0696-2.0539 4.6947-4.3561 4.8527-6.8614 0.20313-3.5887-2.7085-6.1392-2.8439-6.252-2.0314-1.7379-3.0245-3.4082-2.9342-4.9655 0.11286-1.9185 1.8734-3.1373 1.8959-3.1599l-0.20313 0.11286c4.5592-1.7154 5.2138-5.2364 4.9655-7.8771l-1.9185 0.18056" fill="#d3d2d2"/>
 <path d="m0.87762 546.44 25.189-1.7379s4.3561 26.069-0.85768 48.662l-15.641 0.88025s-10.428-34.759-8.6897-47.804" fill="#e4a369"/>
 <path d="m39.112 589.89h16.522s3.4533-33.021 6.0715-42.591c0 0-15.641 0.88025-23.451-2.5956 0 0-3.4984 32.163 0.85769 45.186" fill="#e4a369"/>
 <path d="m-55.12 349.71 3.8596-7.2226 12.482-1.4445 0.97054 4.8075s49.994 19.411 10.563 11.014c0 0 22.119 19.749 1.4445 9.1862 0 0 17.786 20.652-5.7555 5.2815 0 0 16.815 25.956-2.415 6.252l-21.149-27.875" fill="#e4a369"/>
 <path d="m99.646 346.35s5.3041 5.2815 5.7781 10.089c0 0-41.823 51.416-23.564 18.734 0 0-22.593 10.586-1.9185-6.252 0 0-25.482 3.3856-0.94796-7.674 0 0-32.208 4.8075 12.008-11.06l-0.97053-4.3336 9.615 0.49655" fill="#e4a369"/>
 <path d="m-50.087 396.79s6.6358-11.624 18.824 7.2c0 0 7.2 26.024-12.188 40.401l-23.789-24.918s-4.4238-4.4238 2.7536-11.06l14.4-11.624" fill="#41b23b"/>
 <path d="m-71.122 395.69 4.9881 7.7417 12.73-8.8477-9.4119-7.7643-8.306 8.8702" fill="#41b23b"/>
 <path d="m8.1453 599.25 19.84-0.90283-2.2571 25.708s-1.8056 12.166-14.423 3.5887l-3.6113-2.2345 0.45141-26.159" fill="#fff"/>
 <path d="m41.505 595.64s15.325 3.6113 19.84-1.7831c0 0 0.90282 11.263-1.8056 27.491 0 0-9.0282 9.9085-20.291 0.45141l2.257-26.159" fill="#fff"/>
 <path d="m5.8883 629.9s13.52 10.382 21.645 0c0 0 2.7085 7.2226 1.3542 11.285 0 0-29.748 34.691-51.845 20.268 0 0-0.90283-11.714 28.845-31.554" fill="#fff"/>
 <path d="m36.539 626.31s14.874 10.811 25.708-2.2571c0 0 29.748 28.394 22.074 38.754 0 0-19.817 8.5768-48.685-25.234l0.90282-11.263" fill="#fff"/>
 <path d="m-23.408 656.51s22.548 9.9085 51.393-20.742c0 0-19.388 33.359-52.296 23.902l0.90282-3.1599" fill="#434c9e"/>
 <path d="m34.282 631.71s35.165 36.971 50.49 20.291l1.8056 4.9655s-23.88 12.166-52.296-25.256" fill="#434c9e"/>
 <path d="m110.77 118.86s56.381-30.719 140.43-38.754l-34.24-9.0734s-33.72-2.0088-81.525 23.654l-24.67 24.173" fill="#ec950d"/>
 <path d="m145.42 123.98s-8.5542 30.989 35.819 41.688c0 0 12.301 8.5542 27.784-5.8909 0 0 25.121-15.506 17.108-47.037l2.6859-1.0608s7.4257 9.0056 4.8075-8.0126c-1.0834-6.9517 0 0 0 0l-6.41-3.7467-11.24-3.7467 3.7467 8.5542-21.916-6.41 0.54169 6.41-18.711-6.41s-19.253 3.205-29.409 8.5542l-5.3492 10.676-4.8075-0.51912s-14.423 0-7.4709 10.676c0 0 3.7241 3.7467 8.5317 6.4326l4.2884-10.157" fill="#fbcaa5"/>
 <path d="m184.44 95.636 10.698 4.2884v-6.9517l19.772 6.9517-2.1442-9.0959 18.169 6.9517-3.7241-10.157s-21.916 2.1442-42.771 8.0126" fill="#e4a369"/>
 <path d="m147.02 107.94-3.7467 5.8909-5.8684 0.51912-1.0834-3.7241 10.698-2.6859" fill="#e4a369"/>
 <path d="m186.57 112.95s-12.12-6.3423-27.694 5.2138c0 0-1.7379 15.574 17.898 12.12 0 0 15.009-1.7379 9.7956-17.334" fill="#434c9e"/>
 <path d="m158.28 117.37-0.33856 0.24828-0.04514 0.42884c-0.02257 0.24827-0.65455 6.3423 3.6339 10.36 3.2953 3.0922 8.464 4.0401 15.393 2.8213 0.22571-0.02257 6.726-0.83511 9.9762-5.9135 2.0765-3.2953 2.2796-7.5611 0.58683-12.662l-0.13542-0.3837-0.33856-0.15799c-0.51912-0.27085-12.843-6.5003-28.732 5.2589zm27.468-3.7241c0.6094 1.9185 0.94796 3.7241 0.94796 5.3492 0 2.0088-0.47398 3.7693-1.4219 5.2815-2.731 4.2884-8.5768 5.0332-8.622 5.0332-6.3423 1.1285-10.969 0.36112-13.791-2.2796-2.7536-2.573-3.0696-6.3423-3.0696-7.9674v-0.3837c13.7-9.9085 24.196-5.8458 25.956-5.0332" fill="#fff"/>
 <path d="m221.35 107.06s-11.601-7.2452-28.033 3.0696c0 0-2.9116 15.416 16.928 13.452 0 0 15.1-0.56426 11.105-16.522" fill="#434c9e"/>
 <path d="m192.8 109.31-0.33855 0.22571-0.09029 0.40627c-0.04514 0.24827-1.1285 6.2746 2.8439 10.631 3.0245 3.3179 8.1254 4.6495 15.122 3.9724 0.20313-0.02257 6.7712-0.31599 10.382-5.1461 2.3473-3.1147 2.8665-7.3354 1.5574-12.572l-0.09029-0.3837-0.33856-0.20314c-0.47398-0.31598-12.301-7.4483-29.048 3.0696zm27.672-1.6251c0.36113 1.5348 0.58684 3.0244 0.58684 4.3561 0 2.4602-0.63198 4.5367-1.8734 6.2069-3.047 4.0853-8.9379 4.3561-8.9831 4.3561-6.41 0.63197-10.947-0.47398-13.565-3.3179-2.1216-2.3248-2.5053-5.3041-2.5053-7.1774 0-0.63198 0.04514-1.0608 0.06771-1.3768 14.468-8.8702 24.602-3.9724 26.272-3.047" fill="#fff"/>
 <path d="m188.33 109.22c-2.0991 1.106-2.6633 3.4082-2.6859 3.4984l1.8734 0.45142s0.40627-1.5574 1.7379-2.2571c0.94796-0.49655 2.2119-0.45141 3.7241 0.11285l0.67712-1.8056c-2.0539-0.7674-3.8596-0.7674-5.3267 0" fill="#fff"/>
 <path d="m142.55 114.46 9.5022 10.608 8.0577-2.3022-0.51912-1.8508s-5.9135 1.6928-6.9066 1.9636c-0.74483-0.81254-8.6897-9.7053-8.6897-9.7053l-1.4445 1.2865" fill="#fff"/>
 <path d="m226.36 100.4s1.5799 2.8213 2.2119 3.9724c-1.3091 0.74483-6.6583 3.7918-6.6583 3.7918l0.97053 1.6702 8.306-4.7398-3.1373-5.6426-1.6928 0.94797" fill="#fff"/>
 <path d="m191.4 115.43s2.1442 10.157 12.82 17.628l-0.51913 1.0834-7.4934 6.41-4.2884-1.6025 6.9517-5.3492s-5.8683-8.0351-7.4708-18.169" fill="#434c9e"/>
 <path d="m171.6 144.82s20.314 10.157 39.566-4.2658c0 0-15.506 24.579-39.566 4.2658" fill="#434c9e"/>
 <path d="m125.56 344.14 15.145-20.404s44.757 22.706 9.5248 12.843l-2.6182 0.31599s28.619 23.045-3.9498 6.5906c0 0 26.656 27.31-3.6339 5.2589 0 0 24.038 32.592-6.252 3.2953l-8.2157-7.8997" fill="#fbcaa5"/>
 <path d="m174.76 167.64s14.061 8.8702 28.123 0l2.2119 5.9135s-15.529 17.018-31.802-1.4671l1.4671-4.4464" fill="#fbcaa5"/>
 <path d="m332.3 603.27c0-71.978 27.175-130.34 60.715-130.34s60.737 58.367 60.737 130.34-27.198 130.32-60.737 130.32-60.715-58.347-60.715-130.32zm59.451-101.59c-22.209 0-40.198 47.06-40.198 105.13s17.989 105.16 40.198 105.16 40.198-47.089 40.198-105.16-17.989-105.13-40.198-105.13" fill="#858a9c"/>
 <path d="m329.41 603.27c0 74.686 27.942 133.21 63.604 133.21s63.604-58.528 63.604-133.21c0-74.709-27.942-133.23-63.604-133.23s-63.604 58.525-63.604 133.23zm5.7781 0c0-70.285 25.934-127.46 57.826-127.46s57.826 57.171 57.826 127.46c0 70.262-25.934 127.44-57.826 127.44s-57.826-57.176-57.826-127.44" fill="#434c9e"/>
 <path d="m348.67 606.81c0 60.602 18.937 108.05 43.087 108.05 24.173 0 43.11-47.45 43.11-108.05 0-60.579-18.937-108.02-43.11-108.02-24.15 0-43.087 47.443-43.087 108.02zm5.7781 0c0-55.411 17.086-102.24 37.309-102.24s37.332 46.834 37.332 102.24c0 55.456-17.108 102.27-37.332 102.27s-37.309-46.818-37.309-102.27" fill="#434c9e"/>
 <path d="m397.87 708.34h-99.965l-52.431-24.584-13.655-64.823-42.771-3.0696-15.664-14.039s11.466 11.466 0-3.2727c-11.488-14.761 0-27.875 0-27.875h22.932l3.2727-24.579 8.1931-55.704v-86.852c0-31.125-13.114-27.852-13.114-27.852l-26.204-1.6476c-11.466-8.1931 1.6251-22.932 1.6251-22.932l29.5 3.2727c21.307 3.2727 19.682 26.204 19.682 26.204s-9.8408 8.2157 0-3.2727c9.8182-11.466 31.125-19.659 31.125-19.659-50.806-27.852 1.0608-84.369 1.0608-84.369-8.8702-50.242 46.45-54.914 46.45-54.914 49.542-1.3091 44.261 37.693 44.261 37.693 24.444 3.8821 36.293 19.388 36.293 19.388 11.466 21.307-23.203 21.577-23.203 21.577 13.114 37.693-11.466 65.545-11.466 65.545 81.931 90.124 22.954 129.46 22.954 129.46 60.625-3.2953 44.238 40.966 44.238 40.966l-49.384 115.83s35.481 14.423 28.845 28.845l13.294 12.752-5.5298 16.644" fill="#434c9e"/>
 <path d="m250.4 351.11s-45.773-15.28 6.2295-75.589c0 0 41.304-14.558 67.509-9.6376 0 0 21.916 8.4865 28.461 28.145l4.6044 12.459s1.422 41.44-21.487 56.968l-20.72-3.1824-13.565 0.15799 0.45141-3.2276s41.033-12.91 42.884-31.802c0 0 5.5298-16.612-9.6828-35.526v3.2502h-12.459l-3.2276-14.761-2.7536 14.287-13.836-2.3022-1.3768-17.989-2.7762 17.989-12.91-4.153 0.47398-11.534s-3.7016 17.063-22.593 19.366c0 0-27.672 16.612 6.9066 52.567v8.306l-16.115 4.1078-4.0176-7.8997" fill="#f6d841"/>
 <path d="m296.35 353.05c34.578-5.9812 43.335-24.444 43.335-24.444 8.7574-18.892-5.0558-32.276-5.0558-32.276-19.366 2.3248-52.115-6.9066-52.115-6.9066-3.2276 5.5298-18.892 9.6828-18.892 9.6828-23.992 26.746 18.892 50.716 18.892 50.716s9.2314 4.6044 13.836 3.2276" fill="#fbcaa5"/>
 <path d="m298.06 308.45s-2.9793-12.978-26.972-12.482c0 0-4.9881 19.975 23.992 17.47 0 0 3.995-2.4828 2.9793-4.9881" fill="#434c9e"/>
 <path d="m271.07 295-0.72226 0.02257-0.18057 0.69968c-0.09028 0.31599-1.7831 7.4257 2.889 12.91 4.0627 4.7624 11.488 6.7035 22.097 5.7781l0.24828-0.02257 0.18056-0.11286c0.20314-0.13542 4.6721-2.9793 3.3856-6.1843l0.04514 0.13542c-0.13542-0.54169-3.4533-13.745-27.942-13.226zm26.069 13.678 0.02257 0.06771 0.02257 0.06771c0.04515 0.15799 0.09029 0.31599 0.09029 0.47398 0 1.2414-1.6928 2.6408-2.5279 3.2276-9.7956 0.78997-16.612-0.90282-20.201-5.1235-2.3022-2.6859-2.7988-5.9135-2.7988-8.2157 0-0.9931 0.06771-1.7379 0.158-2.2571 22.097-0.18056 25.121 11.263 25.234 11.759" fill="#fff"/>
 <path d="m306.28 309.22s6.4326-11.692 29.364-4.6947c0 0-0.60941 20.584-27.83 10.315 0 0-3.1599-3.4984-1.5348-5.6201" fill="#434c9e"/>
 <path d="m305.44 308.75 0.09028-0.11286c-2.1216 2.731 1.422 6.6809 1.5574 6.8615l0.15799 0.15799 0.22571 0.09028c9.9762 3.7693 17.65 3.9047 22.841 0.42884 6.0038-3.995 6.2746-11.308 6.2972-11.624l0.02257-0.72225-0.69968-0.22571c-23.428-7.1323-30.222 4.6495-30.493 5.1461zm1.3317 1.9185c0-0.31599 0.09028-0.60941 0.27085-0.85769l0.04514-0.04514 0.04514-0.06771c0.24828-0.45141 6.2746-10.608 27.468-4.4464-0.2257 1.7831-1.1962 6.568-5.3718 9.3442-4.6044 3.0696-11.624 2.8665-20.833-0.58683-0.58683-0.67712-1.6251-2.1442-1.6251-3.3404" fill="#fff"/>
 <path d="m303.1 306.15s2.9342 15.551 4.785 18.327l-11.082 3.2276-3.679-4.153 9.6828-1.8508s-2.0088-13.249 0.29342-15.551" fill="#434c9e"/>
 <path d="m277.91 328.61s15.664 13.384 39.182 6.0038c0 0-24.421 17.989-39.182-6.0038" fill="#434c9e"/>
 <path d="m264.5 295.25-0.18056 1.0382 6.6809 0.63197 0.18057-1.9185s-3.205-0.29342-4.5818-0.42884c0.2257-1.3091 0.72225-4.0401 0.72225-4.0401l-1.8959-0.36113-0.9254 5.0784" fill="#fff"/>
 <path d="m340.81 305.11c-1.5574-0.47398-4.8752-1.5122-4.8752-1.5122l-0.56427 1.8508 7.2677 2.2345 0.33856-10.021-1.9411-0.06771s-0.18056 5.6652-0.2257 7.516" fill="#fff"/>
 <path d="m281.79 292.99 13.791 1.8734-1.264 3.7693-12.527-5.6426" fill="#434c9e"/>
 <path d="m307.48 298 0.63198 4.3787 15.032-1.8734-15.664-2.5053" fill="#434c9e"/>
 <path d="m265.74 361.16s21.645 17.718 37.241 3.679c0 0 31.373 2.5505 42.297 8.78 0 0 46.766 46.789 31.17 96.692 0 0-12.843 0.85768-29.996 5.5298l-10.54 8.4865s-65.477-3.1147-106.01 43.674c0 0-3.1373-24.963 1.5574-35.865 0 0-23.406-32.75-20.291-76.401 0 0-10.902-40.559 54.576-54.576" fill="#fff"/>
 <path d="m297.3 307.89 1.5574 1.1285c0.02257-0.02257 1.5799-2.0991 3.3856-2.0088 1.1737 0.06772 2.2796 1.0157 3.3404 2.8213l1.6702-0.97053c-1.3994-2.415-3.0696-3.679-4.9204-3.7693-2.8665-0.13543-4.943 2.6859-5.0332 2.7988" fill="#fff"/>
 <path d="m273.8 349.96s10.315 9.1636 24.038 6.8614l-0.58683 6.884s-12.572 9.1411-24.015-2.8665l0.56426-10.879" fill="#fbcaa5"/>
 <path d="m249.92 443.18-13.294-38.866s13.723 23.473 18.305 38.347c0 0 18.869 2.2796 24.602 8.0126l60.06-3.4307s9.7279-10.315 22.887-12.594c0 0-13.971 13.655-20.584 18.305-5.7329 3.995-10.879 2.2796-10.879 2.2796l-50.919 3.4533s-7.4257-14.897-28.597-10.879l-1.5799-4.627" fill="#434c9e"/>
 <path d="m252.07 443.79s-24.015 2.8665-18.305 13.159l3.4307 2.8665s-6.2972 3.995-4.5818 8.5768c0 0 1.7154 2.3022 5.7329 1.1511 0 0-5.1461 3.4307-0.58683 6.2972 4.5818 2.8665 1.7154 0.56427 1.7154 0.56427s4.0176-0.56427 7.4483-2.8439c0 0-8.5768 5.1461-2.2796 8.5768 0 0 16.003 0.56426 33.179-6.2972l47.488 13.159 13.159-2.3022-56.652-15.438 0.58684-16.025s-17.176-14.287-30.335-11.443" fill="#434c9e"/>
 <path d="m231.46 492.13s14.31 12.888 59.519-0.27085c0 0-35.481 20.584-63.514 5.7104l3.995-5.4395" fill="#434c9e"/>
 <path d="m323.59 448.37s7.4257-34.33 27.446-32.614c0 0 9.7279 0 5.7329 5.1461 0 0 9.1411-0.56426 5.7104 3.4307 0 0 5.7329 3.4533 0 10.315l-25.73 17.74-13.159-4.0176" fill="#434c9e"/>
 <path d="m235.48 527.88s34.894-39.453 100.69-37.174c0 0 40.627 1.1285 31.463 32.614l-37.174 131.59s-21.239 8.4865-28.439-1.1285c-0.27084-0.36113-0.51912-0.74483-0.74482-1.1737-6.2972-11.443-10.879-86.378 11.443-121.86l-12.594 17.74s-69.788 35.481-64.642-20.607" fill="#2b94c4"/>
 <path d="m164.42 612.93c0 61.121 19.366 109.01 44.058 109.01 24.715 0 44.058-47.888 44.058-109.01s-19.343-108.99-44.058-108.99c-24.692 0-44.058 47.872-44.058 108.99zm7.7191 0c0-60.579 18.779-101.3 36.339-101.3s36.361 40.717 36.361 101.3c0 60.602-18.801 101.31-36.361 101.31s-36.339-40.706-36.339-101.31" fill="#434c9e"/>
 <path d="m209.84 614.6c0 10.428-4.2207 18.869-9.4345 18.869s-9.4345-8.4414-9.4345-18.869 4.2207-18.869 9.4345-18.869 9.4345 8.4414 9.4345 18.869" fill="#858a9c"/>
 <path d="m187.11 614.6c0 12.956 5.7104 22.729 13.294 22.729s13.294-9.773 13.294-22.729-5.7104-22.729-13.294-22.729-13.294 9.773-13.294 22.729zm7.7191 0c0-9.3216 3.6113-15.009 5.5749-15.009s5.5749 5.6878 5.5749 15.009-3.6113 15.009-5.5749 15.009-5.5749-5.6878-5.5749-15.009" fill="#434c9e"/>
 <path d="m420.44 128.11s6.7937 9.8182 11.33 13.61l-10.586 6.7937-6.7937-0.7674 9.8182-6.0263s-5.2815-8.0351-3.7693-13.61" fill="#434c9e"/>
 <path d="m399.29 153.06s22.661 10.563 37.761-1.5122c0 0-13.587 24.173-37.761 1.5122" fill="#434c9e"/>
 <path d="m412.14 125.86c0 5.4169-4.4013 9.8182-9.8182 9.8182-5.4395 0-9.8182-4.4013-9.8182-9.8182s4.3787-9.8182 9.8182-9.8182c5.4169 0 9.8182 4.4013 9.8182 9.8182" fill="#434c9e"/>
 <path d="m391.53 125.86c0 5.9361 4.8301 10.789 10.789 10.789 5.9361 0 10.766-4.8527 10.766-10.789 0-5.9586-4.8301-10.789-10.766-10.789-5.9586 0-10.789 4.8301-10.789 10.789zm1.9185 0c0-4.8978 3.9724-8.8702 8.8702-8.8702 4.8752 0 8.8477 3.9724 8.8477 8.8702 0 4.8752-3.9724 8.8477-8.8477 8.8477-4.8978 0-8.8702-3.9724-8.8702-8.8477" fill="#fff"/>
 <path d="m443.85 124.35c0 5.4169-4.4013 9.8182-9.8182 9.8182s-9.8182-4.4013-9.8182-9.8182 4.4012-9.8182 9.8182-9.8182 9.8182 4.4013 9.8182 9.8182" fill="#434c9e"/>
 <path d="m423.24 124.35c0 5.9586 4.8527 10.789 10.789 10.789s10.789-4.8301 10.789-10.789c0-5.936-4.8527-10.789-10.789-10.789s-10.789 4.8527-10.789 10.789zm1.9411 0c0-4.8752 3.9724-8.8477 8.8477-8.8477s8.8702 3.9724 8.8702 8.8477-3.995 8.8702-8.8702 8.8702-8.8477-3.995-8.8477-8.8702" fill="#fff"/>
 <path d="m415.5 115.9c-3.8821 0.90283-5.6652 4.0627-5.7329 4.1981l1.6928 0.92539c0.02257-0.02257 1.4671-2.573 4.4915-3.2502 2.6633-0.58684 5.7555 0.36113 9.2088 2.8213l1.1285-1.5574c-3.9498-2.8213-7.5837-3.8821-10.789-3.1373" fill="#fff"/>
 <path d="m411.32 124.55 12.843 0.7674 0.11286-1.9185-12.843-0.7674-0.11285 1.9185" fill="#fff"/>
 <path d="m370 119.06 13.204 10.112 9.5248-2.3925-0.47398-1.8508-8.5994 2.1442-12.482-9.5474-1.1737 1.5348" fill="#fff"/>
 <path d="m450.71 122.7c-1.0157 0.09028-6.9517 0.69969-6.9517 0.69969l0.18057 1.9185 8.1705-0.83511 3.2276-8.8702-1.8056-0.65455-2.8213 7.7417" fill="#fff"/>
 <path d="m650.1 109.52c-49.362-22.548-82.879-18.372-82.879-18.372l-33.585 11.24c84.391 2.6408 142.62 29.68 142.62 29.68s6.7712 3.5436 5.4395 6.1843c0 0 10.608-1.9862-5.3041-13.249l-26.295-15.483" fill="#8cc724"/>
 <path d="m651.56 93.289s-31.215-22.706-80.735-16.499c0 0 1.8959-25.324 22.683-23.631 0 0 30.335 1.0608 56.404 14.513 0 0 10.856 3.837 1.6476 25.618" fill="#8cc724"/>
 <path d="m558.84 120.62 2.7988 4.3561 7.2226-7.2226 11.804-3.2953h9.2088l16.341 1.5122s19.411 1.9636 29.906 6.6583l6.0038 10.315 4.7624-0.83511s12.233-5.0107 8.1705 10.179c0 0-3.4984 3.9724-8.1254 6.9517l-4.9204-9.8633s10.518 30.403-33.066 43.922c0 0-14.49 7.99-28.123-4.0853 0 0-26.069-13.858-20.088-45.863l-2.731-0.88026s-5.4169 8.78-7.0646-7.4483c0 0 0.83511-16.273 7.8997-4.4013" fill="#c38a59"/>
 <path d="m595.59 133.8s-1.4897 10.27-11.669 18.418l0.6094 1.0382 10.586 6.5003 2.6408-3.9273-8.464-3.4082s5.3492-8.3962 6.2972-18.621" fill="#434c9e"/>
 <path d="m552.46 114.03 1.9862-5.9135s-54.508-9.8408-11.827 7.8771l5.9135 2.6408 3.9273-4.6044" fill="#679219"/>
 <path d="m659.46 130.89s38.077 5.8909 0 10.495v-10.495" fill="#679219"/>
 <path d="m571.08 79.317s39.092-6.6358 78.839 16.544l-0.67712 7.2903s-29.793-15.89-79.471-17.221l1.3091-6.6132" fill="#41b23b"/>
 <path d="m562.07 123.47s18.959-9.1862 28.145 5.4846l13.475 1.8282s7.9448-12.82 32.434 1.264l5.5072-1.2414 1.8282 3.0696-7.9448 4.2884s-22.029 22.029-33.675-2.4602l-11.624-1.8282s-11.624 19.591-29.364-6.1166l1.2188-4.2884" fill="#434c9e"/>
 <path d="m561.64 122.59-0.3837 0.20313-1.4671 5.1235 0.27085 0.3837c6.41 9.2765 12.82 13.881 19.072 13.655 6.3649-0.20314 10.382-5.3492 11.534-7.042 1.0608 0.18057 9.7956 1.5574 10.586 1.6702 3.2727 6.6132 7.6063 10.495 12.956 11.421 10.563 1.8282 20.968-8.1705 21.871-9.0734 0.22571-0.11285 8.7348-4.6947 8.7348-4.6947l-2.731-4.5141-5.8458 1.3091c-22.232-12.64-31.17-3.6339-32.998-1.264-0.99311-0.158-11.759-1.6251-12.482-1.7154-9.6376-14.626-28.913-5.5524-29.116-5.4621zm27.762 6.884 0.24828 0.36113 14.513 1.9862 0.33856-0.51913c0.29342-0.49655 7.8546-11.827 31.125 1.5574l0.33856 0.20314s4.153-0.92539 5.1912-1.1511c0.29342 0.49655 0.56426 0.94796 0.97053 1.6025-1.4219 0.74483-7.2 3.8596-7.2 3.8596l-0.11285 0.09028c-0.09028 0.11285-10.473 10.337-20.268 8.6445-4.8301-0.83511-8.8251-4.469-11.827-10.811l-0.2257-0.45141-12.775-2.0314-0.33856 0.56427c-0.02257 0.06771-3.9273 6.4552-10.337 6.6583-5.4621 0.18057-11.218-4.0401-17.131-12.482 0.18057-0.67711 0.78997-2.7988 0.94797-3.4082 2.7536-1.1962 18.53-7.4934 26.543 5.3266" fill="#fff"/>
 <path d="m575.55 158.34s18.959 17.154 42.816 3.0696l-1.2188 6.726-2.4376-1.8282s-20.201 13.452-37.941-4.8978l-3.679 2.4376 2.4602-5.5072" fill="#434c9e"/>
 <path d="m645.24 614.47s-1.6025 12.03 6.2069 22.277c0 0 23.677 34.24 44.509 24.557 0 0 19.885-6.0489-12.865-51.664l-34.352 3.4307" fill="#434c9e"/>
 <path d="m277.32 453.7-0.3837 16.499s-45.841 20.539-26.408 2.573c0 0-29.703 5.1461 1.4671-7.6966 0 0-26.046 3.6564-11.353-4.0401 0 0 7.3354-4.0401 15.393-4.0401 0 0-7.3354-2.1894-16.499-0.72226 0 0-15.416-3.3179 13.204-9.9085 0 0 19.072 1.8282 24.579 7.3354" fill="#fbcaa5"/>
 <path d="m302.87 660.74s5.7329 11.443 27.175 0c0 0 38.618 21.442 32.885 37.174 0 0-34.307 8.5904-68.637-12.865 0 0 0-15.732 8.5768-24.308" fill="#fff"/>
 <path d="m338.87 648.84 19.411 0.56426s38.821 16.634 26.611 37.151h-16.634s-12.752-21.081-32.163-28.845l2.7762-8.8702" fill="#fff"/>
 <path d="m292.83 672.7s25.527 19.975 63.784 17.199c0 0-30.515 9.4345-65.455-13.317l1.6702-3.8821" fill="#434c9e"/>
 <path d="m343.86 664.37s12.188 15.529 39.927 12.211c0 0-7.7643 4.9881-24.963 2.7762l-14.964-14.987" fill="#434c9e"/>
 <path d="m656.24 346.3 6.3423 17.221s-44.419 39.905-18.124 7.6966c0 0-30.831 18.598 0-8.148 0 0-41.259 21.758-0.90282-9.0734 0 0-46.698 21.307 0-6.3423l12.685-1.3542" fill="#c38a59"/>
 <path d="m530.65 616.54s30.831 11.985 47.985-1.7154l29.139-164.54 34.285 166.25s15.348 16.431 39.408-8.5768c1.0608-1.106 0-6.8614 0-6.8614l-20.562-167.97s-68.569 18.869-116.55 0l-15.416 178.26" fill="#849ccb"/>
 <path d="m412.65 529.98s18.011-68.457-41.417-58.548l41.417 58.548" fill="#434c9e"/>
 <path d="m342.46 487.28s17.176-12.594 41.191-11.443c0 0 29.748 0 22.887 50.919 0 0-31.463 88.093-46.902 116.71l-19.456-0.56426 31.463-116.73s16.025-36.023-29.184-38.889" fill="#2b94c4"/>
 <path d="m232.47 268.35c0.20313-1.7605 1.0834-2.8213 2.7536-2.8213 1.1285 0 2.5053 0.65454 2.7085 2.8213h-5.4621zm5.3041 4.1078c-0.27085 0.94796-1.264 1.4671-2.2571 1.4671-2.8439 0-3.047-2.2796-3.1373-3.2727h9.1862v-0.63197c0-6.1166-3.6564-7.3806-6.2972-7.3806-5.8684 0-6.41 5.1687-6.41 6.7712 0 5.5072 2.889 7.3129 6.6583 7.3129 2.3022 0 4.9655-1.0608 5.8909-4.2658h-3.6339" fill="#434c9e"/>
 <path d="m-5.0359 210.29s-34.262 6.4778-46.766 20.923l-50.062 58.729s-16.364 11.534 1.9185 25.031l36.587 34.646 9.6151-14.445-31.757-31.757 45.254-37.557 8.6445 77.033s50.016 26.024 10.608 17.312c0 0 19.23 15.438 0.94797 10.586 0 0 12.504 18.327-4.8075 7.7191 0 0 10.112 18.305-8.6671 5.7555v10.608s11.556 5.7781 10.586 23.09c0 0 66.425 30.809 123.24-1.9185l-8.6671-38.505s-31.396 28.394-13.61 0.51913c0 0-25.956 10.089-3.7241-7.2677 0 0-28.958 8.7122-1.9185-7.6966 0 0-32.321 3.9047 4.8075-9.6151l9.6376-4.8301-6.7486-91.433 52.951 31.757-32.885 48.707s8.148 5.2815 9.1185 15.867c0 0 30.493-25.098 45.909-70.352 0 0-4.8075-25.031-80.87-61.618 0 0-15.325-7.9674-33.608-12.775 0 0-13.001 31.328-45.728 1.4896" fill="#fff"/>
 <path d="m340.95 420.74c0.09028-1.7605 0.88025-2.889 2.5505-3.0019 1.1285-0.09028 2.5505 0.47398 2.889 2.6182l-5.4395 0.3837zm5.5975 3.7241c-0.20314 0.97053-1.1737 1.5348-2.1668 1.6251-2.8439 0.18056-3.1824-2.0539-3.363-3.047l9.1636-0.65454-0.04514-0.63198c-0.42884-6.094-4.153-7.0872-6.7937-6.9066-5.8458 0.40627-6.0489 5.5975-5.9361 7.2 0.3837 5.5072 3.4082 7.1097 7.1774 6.8389 2.2796-0.158 4.8752-1.3994 5.5749-4.6721l-3.6113 0.24828" fill="#434c9e"/>
 <path d="m337.11 451.48 22.751-16.86c5.4846-4.785 0-9.1862 0-9.1862 3.2953-5.5072-7.7191-2.1893-7.7191-2.1893 3.679-4.4013 1.1285-3.7919 1.1285-3.7919-17.379-2.1893-23.857 21.397-24.873 25.572-0.09028 0.40627-0.13542 0.63197-0.13542 0.63197l8.8476 5.8232" fill="#fbcaa5"/>
 <path d="m201.21 373.5s0.5417-9.2765 6.5455-11.466c0 0 9.0282 6.0038 8.7574 19.93l-6.0263 10.112s-0.27084-15.574-9.2765-18.576" fill="#b0b5c0"/>
 <path d="m534.65 627.24s19.05 5.0784 33.021 0c0 0-8.8928 36.813-39.363 35.549 0 0-17.786-6.3649 6.3423-35.549" fill="#fff"/>
 <path d="m654 629.77s19.05 1.264 27.942-11.421c0 0 25.392 30.47 11.421 36.813 0 0-22.864 11.443-39.363-25.392" fill="#fff"/>
 <path d="m145.28 630.08 14.535 2.3925s-10.247-135.36 53.876-145.99c0 0-12.482-40.063-10.586-65.229-24.105 0-59.428-3.205-59.428-3.205l1.6025 212.03" fill="#849ccb"/>
 <path d="m149.03 609.39c0-72 27.198-130.34 60.715-130.34 33.54 0 60.737 58.345 60.737 130.34 0 71.978-27.198 130.32-60.737 130.32-33.517 0-60.715-58.343-60.715-130.32zm59.451-101.61c-22.187 0-40.198 47.082-40.198 105.16s18.011 105.16 40.198 105.16c22.209 0 40.221-47.084 40.221-105.16s-18.011-105.16-40.221-105.16" fill="#858a9c"/>
 <path d="m145.19 609.39c0 75.228 28.349 134.17 64.552 134.17 36.226 0 64.574-58.943 64.574-134.17 0-75.25-28.349-134.18-64.574-134.18-36.203 0-64.552 58.932-64.552 134.18zm7.6966 0c0-68.569 26.046-126.49 56.855-126.49 30.831 0 56.878 57.916 56.878 126.49 0 68.547-26.046 126.47-56.878 126.47-30.809 0-56.855-57.923-56.855-126.47" fill="#434c9e"/>
 <path d="m401.93 576.5s13.587 1.8959 18.305 0.63198l-0.63198-34.736s-3.4533-14.197-6.6132-17.357c0 0-6.3198 27.152-12.324 38.821l1.264 12.64" fill="#fbcaa5"/>
 <path d="m445.5 528.2s6.3198 19.569 6.3198 29.68l4.4238-30.312-10.744 0.63197" fill="#fbcaa5"/>
 <path d="m452.88 629.72s5.7329 10.021 22.187 8.5994c0 0-5.0107 4.2884-22.187-1.4445v-7.1549" fill="#434c9e"/>
 <path d="m520.84 651.19s22.909 15.032 47.24-22.187c0 0-14.31 40.063-47.94 25.753l0.69968-3.5662" fill="#434c9e"/>
 <path d="m655.36 626.86s25.753 37.219 41.485 14.31c0 0-6.4326 33.63-41.485-14.31" fill="#434c9e"/>
 <path d="m-11.017 210.88s35.255 44.374 57.555-1.0157c0 0-16.815 54.485-57.555 1.0157" fill="#434c9e"/>
 <path d="m164.67 177.77s30.041 29.545 50.919-2.5505c0 0-15.777 44.825-50.919 2.5505" fill="#434c9e"/>
 <path d="m258.88 361.61s29.026 32.592 51.438 3.047c0 0-17.831 40.74-51.438-3.047" fill="#434c9e"/>
 <path d="m376.5 193.57s30.561 46.834 70.804 1.0157c0 0-32.592 59.564-70.804-1.0157" fill="#434c9e"/>
 <path d="m574.08 196.62s27.514 34.127 59.586 1.0157c0 0-30.561 44.825-59.586-1.0157" fill="#434c9e"/>
 <path d="m369.84 110.76s-9.8182 37.761 0.74483 40.785c0 0-2.2571 18.869 17.379 23.406 0 0-3.7919 6.7937-16.612 0.7674 0 0 6.7937 9.8182 15.845 7.5386 0 0-14.355 8.306-22.661-3.7693 0 0-16.612-19.636 5.3041-68.727" fill="#f68711"/>
 <path d="m458.97 119.61s21.171 35.03 11.308 66.673l-4.5141 9.0734-16.635-3.7918 2.2796-3.7693-12.098 1.5122 3.0245-6.0489-10.563 3.7919-1.5122-4.5367s36.248-10.586 28.71-61.934" fill="#f68711"/>
 <path d="m409.18 92.882c-55.501 0-98.295 5.8684-98.295 9.9536 0 4.6044 23.383 8.5542 57.216 10.428 0 0 39.747-21.239 91.004-0.27085 31.418-1.9411 50.197-6.5906 52.747-10.157 2.9342-4.0853-47.195-9.9536-102.67-9.9536" fill="#434c9e"/>
 <path d="m364.47 85.276s5.1912-31.125 42.546-31.125c0 0 32.14-4.153 39.408 26.972 0 0-37.332-10.382-81.954 4.153" fill="#41b23b"/>
 <path d="m319.87 102.9s71.571-18.666 184.63 1.0382l-10.36 2.0765s-22.819-12.459-159.73-1.0382l-14.535-2.0765" fill="#41b23b"/>
 <path d="m377.9 85.795c0 2.5279-2.0539 4.5818-4.6044 4.5818-2.5279 0-4.5818-2.0539-4.5818-4.5818 0-2.5505 2.0539-4.6044 4.5818-4.6044 2.5505 0 4.6044 2.0539 4.6044 4.6044" fill="#41b23b"/>
 <path d="m394.8 89.926c0 2.6859-2.1668 4.8527-4.8527 4.8527s-4.8527-2.1668-4.8527-4.8527c0-2.6633 2.1668-4.8527 4.8527-4.8527s4.8527 2.1893 4.8527 4.8527" fill="#41b23b"/>
 <path d="m407.71 82.161c0 2.6859-2.1668 4.8527-4.8527 4.8527s-4.8527-2.1668-4.8527-4.8527 2.1668-4.8527 4.8527-4.8527 4.8527 2.1668 4.8527 4.8527" fill="#41b23b"/>
 <path d="m422.56 91.483c0 2.6859-2.1668 4.8527-4.8527 4.8527s-4.8527-2.1668-4.8527-4.8527c0-2.6633 2.1668-4.8527 4.8527-4.8527s4.8527 2.1893 4.8527 4.8527" fill="#41b23b"/>
 <path d="m435.72 82.161c0 2.6859-2.1893 4.8527-4.8527 4.8527-2.6859 0-4.8527-2.1668-4.8527-4.8527s2.1668-4.8527 4.8527-4.8527c2.6633 0 4.8527 2.1668 4.8527 4.8527" fill="#41b23b"/>
 <path d="m448.16 92.521c0 2.6859-2.1668 4.8527-4.8527 4.8527s-4.8527-2.1668-4.8527-4.8527c0-2.6633 2.1668-4.8527 4.8527-4.8527s4.8527 2.1894 4.8527 4.8527" fill="#41b23b"/>
 <path d="m257.23 258.82s-91.23 16.409-20.991 43.787l22.819-37.399-1.8282-6.3875" fill="#434c9e"/>
 <path d="m488.51 320.6 14.806-25.505 4.943-5.7555 10.698-16.454-18.102-12.346s-13.994 17.266-18.914 27.965l2.4602 32.908 4.1078-0.81254" fill="#fff"/>
 <path d="m256.47 252.39 4.6044-12.82s11.782-18.44 39.95-15.371c0 0 23.586 0 34.33 12.82l2.0539 11.263s-28.168-18.959-80.938 4.1078" fill="#74c267" fill-rule="evenodd"/>
 <path d="m215.98 285.68s-7.674-13.836 44.08-26.633c0 0 40.988-7.6966 57.893-5.6426 0 0 56.043 6.0941 60.286 30.967 0 0-1.8959 7.9674-21.871 10.54 0 0-3.5887-21.013-31.26-32.276 0 0-19.975-5.1235-70.691 9.7279 0 0-17.944 19.478-19.478 26.137 0 0-18.959-8.7122-18.959-12.82" fill="#74c267" fill-rule="evenodd"/>
</svg>
